# xmcd
#
# Track frame offsets:
# 150
# 15031
# 32076
# 48069
# 66517
# 81391
# 93737
# 102788
# 115058
# 130063
#
# Disc length: 1856 seconds
#
#
# Revision: 0
# Processed by: cddbd v1.5.2PL0 Copyright (c) Steve Scherf et al.
# Submitted via: FreeRIP 2.80 
#
DISCID=76073e0a
DTITLE=Alcides Trevizam - Jesus é a Solução Vol.2
DYEAR=1900
DGENRE=Gospel
TTITLE0=Nosso Jesus
TTITLE1=Eu Alcancei
TTITLE2=O meu irmão
TTITLE3=Agora eu posso cantar
TTITLE4=Você está presente
TTITLE5=Eu cheguei
TTITLE6=O Obreiro
TTITLE7=Esperança
TTITLE8=Solução
TTITLE9=Espírito Santo
EXTD=
EXTT0=
EXTT1=
EXTT2=
EXTT3=
EXTT4=
EXTT5=
EXTT6=
EXTT7=
EXTT8=
EXTT9=
PLAYORDER=
